<mxfile host="app.diagrams.net" modified="2023-11-06T20:27:34.295Z" agent="Mozilla/5.0 (X11; Linux x86_64) AppleWebKit/537.36 (KHTML, like Gecko) Chrome/118.0.0.0 Safari/537.36" version="22.0.8" etag="vq8Sw0i0Rh9yF-gaXqPu" type="github">
  <diagram name="Page-1" id="5KKWWc16Bkt_PhTvbdBZ">
    <mxGraphModel>
      <root>
        <mxCell id="0" />
        <mxCell id="1" parent="0" />
      </root>
    </mxGraphModel>
  </diagram>
</mxfile>
